# xmcd
#
# Track frame offsets: 
#        150
#        14283
#        30403
#        49273
#        64057
#        80467
#        97259
#        113833
#        130940
#        145559
#        159432
#        174382
#        190120
#        204147
#        217582
#        235052
#        250372
#        265983
#        280184
#        293148
#
# Disc length: 4055 seconds
#
# Revision: 2
# Processed by: cddbd v1.5.2PL0 Copyright (c) Steve Scherf et al.
# Submitted via: ExactAudioCopyFreeDBPlugin 1.0
#
DISCID=110fd514
DTITLE=Tom Astor - All The Best - CD 1
DYEAR=2012
DGENRE=Country
TTITLE0=Take It Easy - Nimm´s Leicht  (2003, Original 1991)
TTITLE1=Junger Adler´93  (2003, Original 1993)
TTITLE2=Ich Bin Kein Dichter - Kein Poet  (Mit Den Jordanaires, 1991)
TTITLE3=Renovier´ Deine Seele  (1991)
TTITLE4=Verrückt Sein Und Sonst Gar Nichts  (1994)
TTITLE5=Lass Uns Doch Wieder Mal ...  (1994)
TTITLE6=Freundschaft  (2003, Original 1993)
TTITLE7=Respekt Vor Deiner Schwäche  (2003, Original 1993)
TTITLE8=Ich Will Zurück Zu Mir  (2000)
TTITLE9=Du Bist Da (Wenn´s Drum Geht)  (1993)
TTITLE10=Es Sind Nicht Nur Alte Stiefel  (1994)
TTITLE11=Der Wind Wird Sich Bald Wieder Drehen  (2000)
TTITLE12=Mit Den Track Durch Texas Fahr´n  (1992)
TTITLE13=Kleiner Rebell  (2003, Original 1993)
TTITLE14=Mit Einer Starken Frau  (2003)
TTITLE15=Harte Zeiten (Holz Geht Nicht Unter)  (1993, Original 2001)
TTITLE16=Ohne Dich Wär´ Ich Nicht Ich  (1991)
TTITLE17=Ich Vermiss Dich Immer Schon - Bevor Ich Wieder Geh  (1998)
TTITLE18=Nutz Die Zeit (Alter Junge Nutz Die Zeit)  (1989)
TTITLE19=Vielen Dank Für Das Freundliche Getue  (1991)
EXTD=
EXTT0=
EXTT1=
EXTT2=
EXTT3=
EXTT4=
EXTT5=
EXTT6=
EXTT7=
EXTT8=
EXTT9=
EXTT10=
EXTT11=
EXTT12=
EXTT13=
EXTT14=
EXTT15=
EXTT16=
EXTT17=
EXTT18=
EXTT19=
PLAYORDER=
